<?xml version="1.0" encoding="UTF-8"?>
<svg id="Layer_2" data-name="Layer 2" xmlns="http://www.w3.org/2000/svg" viewBox="0 0 185.14 46.55">
  <defs>
    <style>
      .cls-1 {
        fill: #1c3565;
      }

      .cls-1, .cls-2 {
        stroke-width: 0px;
      }

      .cls-2 {
        fill: #4a88fa;
      }
    </style>
  </defs>
  <g id="Text">
    <g>
      <g>
        <path class="cls-1" d="M31.62,30.35c0,9.37-6.42,16.13-16.01,16.13S0,39.94,0,29.71V.06h10.93v19.87c1.5-2.78,4.28-4.39,7.98-4.39,7.11,0,12.72,6.13,12.72,14.8ZM20.81,30.92c0-3.18-1.97-5.26-4.91-5.26s-4.91,2.08-4.91,5.26,2.08,5.32,4.91,5.32,4.91-2.14,4.91-5.32Z"/>
        <path class="cls-1" d="M35.51,8.55c0-3.7,2.72-5.9,6.24-5.9s6.3,2.2,6.3,5.9-2.66,5.84-6.3,5.84-6.24-2.02-6.24-5.84ZM35.97,17.39h11.56v29.08h-11.56v-29.08Z"/>
        <path class="cls-1" d="M83.68,16.47v30.01h-10.87v-6.36c-1.73,4.05-4.74,6.36-8.85,6.36-6.94,0-12.2-6.53-12.2-15.61s5.32-15.32,12.2-15.32c3.93,0,6.88,2.02,8.61,5.72v-4.8h11.1ZM72.41,30.92c0-3.01-1.91-4.97-4.57-4.97s-4.57,2.02-4.57,4.97,1.97,5.03,4.57,5.03,4.57-2.02,4.57-5.03Z"/>
      </g>
      <path class="cls-2" d="M147.31,21.22c5.33-4.96,11.34-10.31,16.82-15.16,1.79-1.46,4.06-3.95,6.17-4.96,5.73-2.89,13.27,1.17,14.1,7.59.27,2.23.21,5.54.3,7.81.09,5.43.36,13.42.43,18.83.3,7.1-7.03,12.78-13.85,10.84-1.47-.33-3.29-1.36-4.35-2.22-8.07-5.98-16.07-12.04-24.07-18.12-7.98-6.1-15.95-12.21-23.86-18.39-2.52-2.48-6.86-1.72-8.41,1.37-.86,1.36-.55,4.6-.65,6.18-.1,5.43-.34,13.42-.45,18.83,0,.56-.08,2.23-.08,2.78-.26,4.98,5.91,8.09,9.94,5.2,0,0,1.5-1.1,1.5-1.1,6.9-5.13,14.3-10.6,21.31-15.54,0,0,.15.18.15.18-3.69,3.43-7.42,6.79-11.17,10.15l-5.64,5.01c-1.79,1.46-4.06,3.95-6.17,4.96-6.19,3.11-14.11-1.79-14.22-8.76-.02-.6-.08-2.25-.1-2.87-.14-5.4-.31-13.4-.45-18.83,0,0-.07-3.77-.07-3.77-.3-7.1,7.03-12.78,13.85-10.84,1.47.33,3.29,1.36,4.35,2.22,16.12,11.99,32.09,24.16,47.93,36.51,3.33,3.24,9.01.83,9-3.79.11-8.22.47-17.87.58-26.08-.3-4.64-6.15-7.21-9.92-4.49-.91.66-3.57,2.64-4.52,3.35-5.89,4.36-12.33,9.1-18.29,13.3,0,0-.15-.18-.15-.18h0Z"/>
    </g>
  </g>
</svg>