<svg width="306" height="44" viewBox="0 0 306 44" fill="none" xmlns="http://www.w3.org/2000/svg">
<path d="M9.54998 17.9805C9.91998 17.4105 10.34 16.8705 10.82 16.3505C15.23 11.6105 22.64 11.3505 27.38 15.7505C32.12 20.1505 32.38 27.5705 27.98 32.3105C23.57 37.0505 16.16 37.3105 11.42 32.9105C10.84 32.3705 10.32 31.7805 9.86998 31.1505L4.55999 36.8605C5.05999 37.4505 5.58998 38.0105 6.16998 38.5505C14.02 45.8605 26.31 45.4105 33.62 37.5605C40.93 29.7105 40.48 17.4205 32.63 10.1105C24.78 2.80053 12.49 3.25053 5.17999 11.1005C4.70999 11.6105 4.26999 12.1405 3.85999 12.6805L9.54998 17.9805Z" fill="#FBC70F"/>
<path d="M30.28 4.29041C29.63 4.05041 28.97 3.84041 28.32 3.67041L25.6 10.9504C26.27 11.0704 26.93 11.2604 27.59 11.5004C33.65 13.7704 36.73 20.5204 34.46 26.5804C32.19 32.6404 25.44 35.7204 19.38 33.4504C18.98 33.3004 18.59 33.1304 18.22 32.9404L16.03 40.4004C16.25 40.4904 16.46 40.5804 16.69 40.6604C26.74 44.4204 37.92 39.3204 41.68 29.2704C45.44 19.2204 40.34 8.04041 30.29 4.28041L30.28 4.29041Z" fill="#7F559D"/>
<path d="M29.7501 10.5902H31.1701C26.7701 7.33023 21.0201 5.94023 15.2601 7.26023C10.7401 8.30023 6.96006 10.8302 4.31006 14.2202L9.92006 19.5902C11.5201 17.2402 13.9801 15.4602 16.9801 14.7702C22.1101 13.5902 27.2301 15.9802 29.7401 20.3102V10.5902H29.7501Z" fill="#48A5E0"/>
<path d="M37.2801 22.3401C37.2801 21.5701 37.2501 20.7901 37.1701 20.0101C36.0001 9.35014 26.4101 1.65014 15.7501 2.82014C11.1401 3.32014 7.09007 5.40014 4.07007 8.46014L9.02007 14.4401C10.8901 12.2901 13.5401 10.8101 16.5901 10.4701C23.0201 9.77014 28.8101 14.4101 29.5101 20.8401C29.6001 21.6301 29.6001 22.4201 29.5301 23.1801L37.2801 22.3301V22.3401Z" fill="#79B843"/>
<path d="M30.99 17.9403C31.11 18.6103 31.17 19.2903 31.17 20.0003C31.17 26.4703 25.92 31.7203 19.45 31.7203C12.98 31.7203 7.73003 26.4703 7.73003 20.0003C7.73003 13.5303 12.98 8.28031 19.45 8.28031C20.25 8.28031 21.03 8.36031 21.78 8.51031V0.710312C21.02 0.620312 20.24 0.570312 19.45 0.570312C8.72003 0.570312 0.0300293 9.26031 0.0300293 19.9903C0.0300293 30.7203 8.72003 39.4103 19.45 39.4103C30.18 39.4103 38.87 30.7203 38.87 19.9903C38.87 19.3003 38.83 18.6103 38.76 17.9303H30.99V17.9403Z" fill="#FF7900"/>
<path d="M63.28 21.0202H69.67V27.2302C68.16 28.8202 66.18 29.6202 63.73 29.6202C62.25 29.6202 60.94 29.3102 59.82 28.7002C58.7 28.0902 57.83 27.2202 57.22 26.1002C56.61 24.9802 56.3 23.6902 56.3 22.2202C56.3 20.7502 56.62 19.4602 57.27 18.3202C57.92 17.1802 58.82 16.2802 59.98 15.6402C61.14 15.0002 62.46 14.6802 63.94 14.6802C64.99 14.6802 65.97 14.8502 66.87 15.1902C67.78 15.5302 68.56 15.9902 69.23 16.5602L67.74 18.5602C66.57 17.6502 65.3 17.1902 63.94 17.1902C62.97 17.1902 62.13 17.3902 61.41 17.7902C60.69 18.1902 60.13 18.7602 59.73 19.5102C59.33 20.2502 59.14 21.1102 59.14 22.1002C59.14 23.0902 59.33 23.9902 59.71 24.7602C60.09 25.5202 60.64 26.1102 61.34 26.5202C62.05 26.9302 62.88 27.1302 63.83 27.1302C65.15 27.1302 66.27 26.7702 67.18 26.0502V23.3702H63.28V21.0202Z" fill="white"/>
<path d="M85.3001 29.3203L81.4001 24.5203H79.7201V29.3203H76.8601V15.0103H82.9101C83.9001 15.0103 84.7901 15.2103 85.5701 15.6003C86.3501 16.0003 86.9501 16.5503 87.3801 17.2703C87.8101 17.9903 88.0201 18.8103 88.0201 19.7303C88.0201 20.8703 87.7101 21.8503 87.0901 22.6503C86.4701 23.4503 85.6201 24.0003 84.5301 24.2903L88.7601 29.3203H85.3101H85.3001ZM84.5101 18.0903C84.0701 17.6703 83.4501 17.4703 82.6601 17.4703H79.7001V22.1703H82.6801C83.4701 22.1703 84.0801 21.9703 84.5201 21.5603C84.9601 21.1503 85.1701 20.5903 85.1701 19.8603C85.1701 19.1003 84.9501 18.5103 84.5101 18.0903Z" fill="white"/>
<path d="M98.04 28.8503C97.11 28.3503 96.39 27.6203 95.88 26.6703C95.38 25.7203 95.12 24.6003 95.12 23.2903V15.0103H97.94V23.2903C97.94 24.5003 98.24 25.4403 98.85 26.1103C99.46 26.7803 100.27 27.1103 101.29 27.1103C102.31 27.1103 103.15 26.7803 103.75 26.1103C104.36 25.4403 104.66 24.5103 104.66 23.3103V15.0103H107.48V23.3103C107.48 24.5903 107.22 25.7103 106.71 26.6603C106.2 27.6103 105.48 28.3403 104.55 28.8503C103.62 29.3503 102.53 29.6103 101.28 29.6103C100.03 29.6103 98.95 29.3603 98.02 28.8503H98.04Z" fill="white"/>
<path d="M121.35 15.01C122.48 15.01 123.44 15.23 124.23 15.67C125.02 16.11 125.62 16.71 126.02 17.47C126.42 18.23 126.62 19.07 126.62 20.01C126.62 20.95 126.42 21.83 126.02 22.61C125.62 23.39 125.02 24 124.23 24.45C123.44 24.9 122.48 25.12 121.35 25.12H118V29.31H115.18V15H121.35V15.01ZM121.19 22.62C122.05 22.62 122.69 22.38 123.12 21.9C123.55 21.42 123.76 20.82 123.76 20.1C123.76 19.38 123.54 18.75 123.11 18.26C122.67 17.77 122.03 17.52 121.19 17.52H118V22.61H121.19V22.62Z" fill="white"/>
<path d="M135.88 28.7202C134.75 28.1002 133.87 27.2302 133.25 26.1002C132.63 24.9802 132.32 23.6802 132.32 22.2302C132.32 20.7802 132.64 19.4102 133.27 18.2702C133.9 17.1302 134.8 16.2502 135.95 15.6202C137.1 14.9902 138.43 14.6802 139.94 14.6802C141.45 14.6802 142.69 14.9902 143.82 15.6102C144.95 16.2302 145.83 17.1002 146.44 18.2302C147.06 19.3502 147.37 20.6502 147.37 22.1002C147.37 23.5502 147.05 24.9202 146.42 26.0602C145.79 27.2002 144.89 28.0802 143.74 28.7102C142.59 29.3402 141.26 29.6502 139.75 29.6502C138.24 29.6502 137 29.3402 135.87 28.7202H135.88ZM142.25 26.5002C142.96 26.0902 143.51 25.5202 143.9 24.7702C144.29 24.0302 144.49 23.1802 144.49 22.2302C144.49 21.2802 144.3 20.3602 143.91 19.6002C143.52 18.8402 142.98 18.2602 142.29 17.8402C141.6 17.4202 140.79 17.2202 139.88 17.2202C138.97 17.2202 138.14 17.4302 137.43 17.8402C136.72 18.2602 136.17 18.8302 135.79 19.5702C135.4 20.3102 135.21 21.1502 135.21 22.1002C135.21 23.0502 135.4 23.9702 135.79 24.7302C136.18 25.4902 136.72 26.0702 137.41 26.4902C138.1 26.9102 138.91 27.1102 139.82 27.1102C140.73 27.1102 141.54 26.9102 142.25 26.5002Z" fill="white"/>
<path d="M175.88 15.0103H178.58V29.3203H175.78V21.6803C175.78 21.0403 175.81 20.3503 175.86 19.6203L175.8 19.5803C175.53 20.0803 175.11 20.7403 174.55 21.5403L171.24 26.3603H170.46L167.17 21.5403C166.58 20.7103 166.16 20.0803 165.9 19.6403L165.84 19.6603C165.91 20.2703 165.94 20.9603 165.94 21.7203V29.3203H163.14V15.0103H165.84L170.89 22.3903L175.87 15.0103H175.88Z" fill="white"/>
<path d="M200.35 29.3203H197.27L196.06 26.5203H189.01L187.8 29.3203H184.8L191.05 15.0103H194.09L200.34 29.3203H200.35ZM190.02 24.0703H195.07L193.46 19.9603C193.01 18.8203 192.72 18.0603 192.6 17.6903H192.54L192.09 18.8303L191.64 19.9903L190.03 24.0603L190.02 24.0703Z" fill="white"/>
<path d="M215.02 29.3203L211.12 24.5203H209.44V29.3203H206.58V15.0103H212.63C213.62 15.0103 214.51 15.2103 215.29 15.6003C216.07 16.0003 216.67 16.5503 217.1 17.2703C217.53 17.9903 217.74 18.8103 217.74 19.7303C217.74 20.8703 217.43 21.8503 216.81 22.6503C216.19 23.4503 215.34 24.0003 214.25 24.2903L218.48 29.3203H215.03H215.02ZM214.23 18.0903C213.79 17.6703 213.17 17.4703 212.38 17.4703H209.42V22.1703H212.4C213.19 22.1703 213.8 21.9703 214.24 21.5603C214.68 21.1503 214.89 20.5903 214.89 19.8603C214.89 19.1003 214.67 18.5103 214.23 18.0903Z" fill="white"/>
<path d="M227.85 29.3203H225.03V15.0103H227.85V29.3203Z" fill="white"/>
<path d="M241.9 15.01C243.03 15.01 243.99 15.23 244.78 15.67C245.57 16.11 246.17 16.71 246.57 17.47C246.97 18.23 247.17 19.07 247.17 20.01C247.17 20.95 246.97 21.83 246.57 22.61C246.17 23.39 245.57 24 244.78 24.45C243.99 24.9 243.03 25.12 241.9 25.12H238.55V29.31H235.73V15H241.9V15.01ZM241.74 22.62C242.6 22.62 243.24 22.38 243.67 21.9C244.1 21.42 244.31 20.82 244.31 20.1C244.31 19.38 244.09 18.75 243.66 18.26C243.22 17.77 242.58 17.52 241.74 17.52H238.55V22.61H241.74V22.62Z" fill="white"/>
<path d="M256.43 28.7202C255.3 28.1002 254.42 27.2302 253.8 26.1002C253.18 24.9802 252.87 23.6802 252.87 22.2302C252.87 20.7802 253.19 19.4102 253.82 18.2702C254.45 17.1302 255.35 16.2502 256.5 15.6202C257.65 14.9902 258.98 14.6802 260.49 14.6802C262 14.6802 263.24 14.9902 264.37 15.6102C265.5 16.2302 266.38 17.1002 267 18.2302C267.62 19.3502 267.93 20.6502 267.93 22.1002C267.93 23.5502 267.61 24.9202 266.98 26.0602C266.35 27.2002 265.45 28.0802 264.3 28.7102C263.15 29.3402 261.82 29.6502 260.31 29.6502C258.8 29.6502 257.56 29.3402 256.43 28.7202ZM262.8 26.5002C263.51 26.0902 264.06 25.5202 264.45 24.7702C264.84 24.0302 265.04 23.1802 265.04 22.2302C265.04 21.2802 264.85 20.3602 264.46 19.6002C264.07 18.8402 263.53 18.2602 262.84 17.8402C262.15 17.4202 261.34 17.2202 260.43 17.2202C259.52 17.2202 258.69 17.4302 257.98 17.8402C257.27 18.2602 256.72 18.8302 256.34 19.5702C255.95 20.3102 255.76 21.1502 255.76 22.1002C255.76 23.0502 255.95 23.9702 256.34 24.7302C256.73 25.4902 257.27 26.0702 257.96 26.4902C258.65 26.9102 259.46 27.1102 260.37 27.1102C261.28 27.1102 262.09 26.9102 262.8 26.5002Z" fill="white"/>
<path d="M276.52 29.1602C275.56 28.8502 274.7 28.4002 273.94 27.8302L275.19 25.6202C275.84 26.0802 276.55 26.4502 277.3 26.7102C278.06 26.9802 278.81 27.1102 279.56 27.1102C280.43 27.1102 281.14 26.9302 281.67 26.5702C282.21 26.2102 282.48 25.7202 282.48 25.0902C282.48 24.5502 282.25 24.1102 281.8 23.7802C281.34 23.4502 280.58 23.2102 279.5 23.0602C277.74 22.8302 276.45 22.3902 275.62 21.7302C274.79 21.0802 274.37 20.1702 274.37 19.0102C274.37 18.1702 274.6 17.4202 275.05 16.7602C275.51 16.1102 276.14 15.6002 276.95 15.2402C277.76 14.8802 278.68 14.7002 279.72 14.7002C280.67 14.7002 281.54 14.8102 282.34 15.0302C283.13 15.2502 283.92 15.6102 284.71 16.1102L283.5 18.2202C282.94 17.8502 282.35 17.5802 281.71 17.4002C281.08 17.2202 280.45 17.1302 279.82 17.1302C279.02 17.1302 278.37 17.2902 277.89 17.6002C277.41 17.9102 277.16 18.3402 277.16 18.8902C277.16 19.3902 277.38 19.7802 277.83 20.0402C278.28 20.3102 279.04 20.5202 280.1 20.6802C281.88 20.9402 283.19 21.4302 284.03 22.1602C284.87 22.8902 285.29 23.8502 285.29 25.0502C285.29 25.9602 285.05 26.7602 284.58 27.4502C284.1 28.1402 283.43 28.6702 282.57 29.0402C281.71 29.4102 280.71 29.6002 279.58 29.6002C278.45 29.6002 277.49 29.4402 276.53 29.1302L276.52 29.1602Z" fill="white"/>
<path d="M305.74 29.3203H302.66L301.45 26.5203H294.4L293.19 29.3203H290.19L296.44 15.0103H299.48L305.73 29.3203H305.74ZM295.41 24.0703H300.46L298.85 19.9603C298.4 18.8203 298.11 18.0603 297.99 17.6903H297.93L297.48 18.8303L297.03 19.9903L295.42 24.0603L295.41 24.0703Z" fill="white"/>
</svg>
