<svg version="1.1" id="Layer_1" xmlns="http://www.w3.org/2000/svg" xmlns:xlink="http://www.w3.org/1999/xlink" x="0px" y="0px" viewBox="0 0 281.8 100" style="enable-background:new 0 0 281.8 100;" xml:space="preserve">
 <style type="text/css">
  .st0{fill-rule:evenodd;clip-rule:evenodd;fill:#0070BA;}
 </style>
 <g>
  <path class="st0" d="M280,38c-3.1,0.8-6.1,2.1-8.9,3.9l-2.5-5c-1.1-2.3-2.1-4.7-2.9-7.2c-0.5-1.2-0.8-2.2-2.3-2
		c-1.2,0.2-1.7,1.5-2.9,3.4c-2,4.2-10.1,20.6-12.1,22.8c-0.7,0.8-2.2,1.2-2.2-0.7V34.1c0-5.7-6.7-6.7-9.4-2
		c-2.2,3.9-7.4,15.1-7.9,16.3c-0.7,1.3-1.8,1-1.8-0.5V33.6c0-5.5-5-5.5-7.7-2.7c-1,1-2.9,3.7-5.9,5.4c-1.2,0.6-2.4,1.1-3.7,1.3
		c-2.9-9.1-11.2-11.9-14.4-7.7c-2.3,3-0.7,6.7,2,9.1c1.5,1.3,4.4,2.9,8.4,3v2.3c0,6.2-3.4,11.1-8.6,11.1c-5.4,0-8.4-4.2-8-11.2
		c0-5.7,2-10.1,3.9-12.1c1.3-1.3,0.5-3.7-1.5-2.9c-6.7,3.3-13,7.1-18.9,11.6l-2-4.2c-1.2-2.3-2.5-4.9-3.5-7.4
		c-0.5-1.3-1.7-2.2-2.9-1.8c-1,0.2-1.7,1.3-2.5,3.4l-12.2,23c-1.2,1.7-2.2,1.2-2.2-0.5V35.3c0-4.9-2.2-6.4-4.5-6.4
		c-3,0-4.9,1.7-6.7,5c-1.7,2.7-6.7,12.6-8.2,15.1c-1,1.7-1.8,1.2-2-0.8V34.4c0-3.9-1.3-5.4-3.9-5.5c-2.5-0.2-4.5,1.2-6,3.2
		c-1.8,2.5-10.7,18.4-13.6,22.1c-1.3,1.8-2.9,1.8-2.7-0.5V35.8c0-2.7-0.8-6.4-5-6.7c-3-0.2-5.5,1.3-7,3.9c-2,3-5,10.4-6.4,13.4
		c-0.7,1.5-2,1.7-2-0.7V34.4c6-5.4,10-12.7,11.4-20.6C92,4.9,89,0.6,84,0.7c-5.5,0-9.1,5-10.7,10.7c-1.5,5-2,12.2-2,17.9v6
		c-1.3,0.8-2.6,1.5-4,2l-3.9,0.8c-2.7-9.4-10.9-11.9-14.1-8.4c-2.2,2.5-1.7,6.7,1.7,9.2c1.3,1.2,4,2.7,8.4,3.2v2.2
		C59.2,50.9,56,55.4,51,55.4s-8.2-3-8-10.9c0-5.4,1.5-9.6,3.9-12.1c1.7-1.5,0.5-4-2.2-2.7c-3,1.7-9.6,4.9-17.6,12.9
		c-0.3-4.7-0.7-9.1-0.5-13.4c0-7.9,0-16.3,2.3-24.1c1-2.9,1.5-5.5-2.2-5C16.6,1.7,2.3,13.1,0.3,30.7c-1.5,12.9,2.5,21.1,7.9,26.3
		c1.5,1.3,3.5,2.3,5,2.9c0,0.2,0,0.3-0.3,0.5c-5.2,7.5-8.3,16.2-9.1,25.3c-0.7,8.6,2.3,14.1,8.9,14.3c9.4,0,15.4-9.7,15.8-26.2
		c0.2-8.4-0.5-17.3-1.2-25.8c3.4-3.7,6.4-6.2,8.2-7.4c0.7-0.7,1.2,0,0.8,1c-0.8,2.4-1.2,5-1,7.5c0.2,6.2,4.5,14.1,14.3,13.7
		c10.6-0.3,15.1-9.7,14.6-19.8L64,42c0.9-0.1,1.8-0.3,2.7-0.5l4.5-1.7v18.3c0,5.2,6.9,6.4,9.4,0.7c2-4.9,6-15.1,8.6-20.1
		c1.2-2.3,2.5-1.7,2.5,0.3v16.4c0,7.4,8.6,9.7,12.6,3.7c2.5-3.9,9.9-16.8,11.7-19.6c1.2-1.5,2.2-1,2.2,0.7v17.3
		c0,6.2,6.4,6.9,9.1,1.7c3.2-5.9,8.4-16.8,10.1-19.6c0.8-1.7,2.3-1.7,2.3,0.7c0,5.4,0,10.7,0,16.1c0,7.7,7.7,8,11.2,2.7
		c2.2-3.2,9.2-16.8,10.1-18.4s1.7-2.3,2.7,0l2.5,5c-3.4,2.9-6.9,6.5-7,10.4c-0.2,3.9,2.2,6.7,5.7,6.7c6.5,0.7,11.4-3.9,11.1-10.9
		c0-2.5-0.8-5-1.7-7.5c3-2.3,6-4.7,7.2-5.2c1.7-0.8,2-0.3,1.7,1.3c-0.8,2.5-1.2,5.1-1.2,7.7c0,5,3,14.8,14.4,14.8
		c10.1,0,15.3-10.6,14.4-21v-0.5h0.5c2.3-0.6,4.4-1.6,6.2-3c1-0.8,1.8-0.5,1.8,2.2v17.4c0,3.4,2.7,4.7,4.4,4.7c2.3,0,3.9-1.7,5-4.4
		c2.3-5.7,6.7-15.1,7.7-16.8c0.8-1.7,2-1.7,2-0.2v15.1c0,7,7,7.9,10.1,3.9c3.4-4.5,10.6-18.1,11.1-19.1c1-1.7,2-0.8,2.5,0.3
		s1.3,1.7,2.3,4.4l0.2,0.5c-3.9,3.4-6.7,6.7-6.7,9.7c0,5,3.9,7,8,6.5c4.4-0.5,8.7-4,8.4-10.9c-0.2-2.3-0.8-4.6-1.7-6.7
		c2.5-1.7,5-3,7.4-3.7C282.4,40.5,282.4,37.3,280,38L280,38z M7.7,33.9C8.2,17.8,15.1,8.8,20.1,6.1c1.7-1,2.5-0.5,1.3,2
		c-1.8,3.9-4,13.4-3.9,23.1l1.3,20.6c-1.5,1.9-2.9,3.9-4.2,5.9C10,54.1,7.5,45.3,7.9,33.9H7.7z M19.6,79.7
		c-0.8,8.9-2.5,15.8-7.2,15.1c-3.4-0.7-4.7-8.7-0.8-20.5c2-6,4.7-11.4,7.7-15.9C19.8,66.3,20.1,73.5,19.6,79.7z M53,35.6
		c-2.3-2.3-0.5-4.4,2-2.9c1.7,1.2,3,3,3.5,5.5C56.4,38,54.5,37.1,53,35.6L53,35.6z M83.8,5.1c3.4,0.3,2.3,5.5,1.3,10.4
		c-0.7,3.7-2.7,8.4-5.9,12.4V17.8C79.3,10.6,80.8,4.8,83.8,5.1z M167.7,56.6c-0.7,2.2-3.4,2.5-4,0.5c-0.7-2.3,0.7-4.7,4-7.7
		C168.5,52,168.5,54.4,167.7,56.6z M200,36.1c-3.4-3-1.2-5,1-3.7c1.8,1,3.2,3,4,5.5C203.2,37.9,201.5,37.2,200,36.1L200,36.1z
		 M265.9,57.9c-1.2,1.7-4.4,1-4-1.7c0.5-2.5,2-4.2,4-6C266.8,52.9,267.4,55.7,265.9,57.9z">
  </path>
  <path class="st0" d="M249.8,23.9c0.7,0,1.7,1,1.2,1.8l-1.2,2.9c-1.7,2.5,0.8,3.7,2.2,2.2c1.3-1.3,5.2-6.5,5.5-11.4
		s-2.7-7.2-5.9-7.2c-3.4,0-6.4,2.3-6.5,5.9c-0.2,2.9,1.7,5.5,4.5,6L249.8,23.9z M271.3,25.7c0-2.3,1.8-4,4.2-4c2.2,0,4,1.7,4,4
		c0,2.5-1.7,4.2-4,4.2C273.1,29.9,271.3,28.2,271.3,25.7L271.3,25.7z M275.5,30.7c2.8,0,5-2.3,5-5s-2.3-5-5-5s-5,2.3-5,5
		S272.7,30.7,275.5,30.7z M274.3,26.2h1l1.7,2.5h0.8l-1.7-2.7c1,0,1.7-0.5,1.7-1.7c0-1-0.8-1.5-2.2-1.5h-2.2v5.9h0.8V26.2z
		 M274.3,25.4v-1.7h1.3c0.5,0,1.2,0,1.2,0.8s-0.7,0.8-1.3,0.8H274.3z">
  </path>
 </g>
</svg>