<svg version="1.1" id="Layer_1" xmlns="http://www.w3.org/2000/svg" xmlns:xlink="http://www.w3.org/1999/xlink" x="0px" y="0px" viewBox="0 0 225 65.4" style="enable-background:new 0 0 225 65.4;" xml:space="preserve">
 <style type="text/css">
  .st0{fill:#FFFFFF;}
	.st1{fill:#231F20;}
	.st2{fill:#D7282F;}
	.st3{fill:#FFC629;}
 </style>
 <g>
  <path class="st0" d="M212.7,33.2l3.2-21l-3.3-1.5c-3.5-1.6-7.4-3.3-13.3-3.3c-8.9,0-15.5,4.7-17.9,12.1c-4-3.3-8.8-5-13.9-5h-0.1
		c-3.9,0-7.6,1.1-11,3l-10.5-2c1.1-2.5,2.4-6.6,1-9.5l-0.1-0.2c-2-3.8-8.2-4-9.4-4c-3,0-4.7,1.1-5.7,2.2c-1.4-1.3-4.4-3.3-10.2-4
		C120.9,0,120.1,0,119.4,0c-6.7,0-10.1,3.5-10.5,3.9l-0.3,0.4c-0.9-1.2-2.6-2.4-5.8-2.4c-1.2,0-7.4,0.2-9.4,4L93.2,6
		c-1.3,2.8-0.3,6.5,0.8,9l-5,0.8L87.8,16c-3.3-1.3-6.4-1.8-10.3-1.8c-6.7,0-12.1,3.1-14.8,8.1c-0.1-0.1-0.1-0.1-0.2-0.2
		c-4.4-4.9-10.3-7.6-16.6-7.6h-0.1c-2.3,0-4.5,0.4-6.6,1.1l-1.4-8.9L2.3,11.1L0,30.2L9.6,29l1.2,30.8L11,65l17.5-2.2l0.3-5.5
		c0.2,0.2,0.3,0.4,0.5,0.6c4.4,4.9,10.3,7.6,16.6,7.6H46h0c5.7,0,11-2.3,15-6.1l0.6,0.6c3.5,3.3,9,5.1,15.1,5.1
		c10.5,0,17.5-6.7,17.5-16.7l0.9-0.3l1.7,15.9h46.7l1.7-15.9h0.4c1.1,3.7,3,7.1,5.5,9.9c4.4,4.9,10.3,7.6,16.6,7.6h0.1h0
		c5.4,0,10.3-2.1,14.3-5.4c4.4,3.2,10.4,5.1,16.5,5.1c11.6,0,19.5-7.5,19.5-18.6C218,40.8,215.7,36.5,212.7,33.2 M205,27.1L205,27.1
		C204.9,27.1,204.9,27.1,205,27.1">
  </path>
  <polygon class="st1" points="34,11.7 6.4,15.1 5.2,24.9 14,23.8 15.3,59.6 15.3,59.9 24.2,58.8 26.2,22.3 35.5,21.1 	">
  </polygon>
  <path class="st1" d="M119.9,40.3c-2.6,0-5.5-1.1-6.6-2.8h-0.3l2.8,21.5h8.2l2.8-21.5h-0.3C125.4,39.2,122.6,40.3,119.9,40.3">
  </path>
  <polygon class="st1" points="117.7,23.2 114.5,16.3 89.7,20.3 89.5,20.3 88.3,31.7 97.7,29.6 100.9,59.3 109.5,59.2 108.4,26.9 	
		">
  </polygon>
  <path class="st1" d="M100.6,16.5l0.2,0h0.3c1.2,0,2.6-0.1,3.2-0.9c0.7-1.1,1.5-6,0.9-8.3c-0.2-0.6-1-0.9-2.4-0.9
		c-1.8,0-4.9,0.6-5.4,1.6c-0.7,1.4,0.6,5.4,1.8,7.3C99.7,16.1,100.1,16.5,100.6,16.5 M100.6,16.2L100.6,16.2L100.6,16.2L100.6,16.2z
		">
  </path>
  <path class="st2" d="M112.2,30.8c0-2.7,3.4-5,7.7-5c4.2,0,7.7,2.2,7.7,5c0,2.7-3.4,5-7.7,5C115.7,35.8,112.2,33.6,112.2,30.8">
  </path>
  <path class="st3" d="M112.2,7l7.5,14.2L129,7.7c0,0-1.8-2.4-7.9-3C115,4,112.2,7,112.2,7">
  </path>
  <polygon class="st1" points="125.7,16.3 122.6,23.2 131.9,26.9 130.7,59.2 139.4,59.3 142.5,29.6 148.3,31.5 153.4,21.5 	">
  </polygon>
  <path class="st1" d="M139.2,16.5l0.4,0h0c0.4,0,0.9-0.4,1.4-1.2c1.2-1.9,2.5-5.9,1.8-7.3c-0.5-0.9-3.6-1.6-5.4-1.6
		c-1.4,0-2.2,0.3-2.4,0.9c-0.6,2.3,0.2,7.2,0.9,8.3C136.6,16.4,138,16.5,139.2,16.5 M139.7,16.2L139.7,16.2L139.7,16.2L139.7,16.2z">
  </path>
  <path class="st1" d="M203.1,31.3c-5.1-3.2-6.4-4.6-6.4-6.7c0-1.8,1.5-3.1,3.6-3.1c2.9,0,5.6,0.9,8.9,2.8l0.2,0.1l1.5-9.3l0-0.1
		l-0.1,0c-3.2-1.4-6.5-2.9-11.4-2.9c-8.6,0-14.2,5.4-14.2,13.7c0,6.9,4.8,11,9.9,14.3c5.3,3.5,6.8,5.1,6.8,7.6
		c0,2.2-1.7,3.6-4.4,3.6c-3.4,0-5.1-0.9-9.3-3l-0.3-0.1l-3.3,8.2l0,0.1l0.1,0.1c3.7,2.7,8.7,4.2,13.9,4.2c9.2,0,14.9-5.4,14.9-14
		C213.4,38.9,208.2,34.5,203.1,31.3">
  </path>
  <path class="st1" d="M59.1,25.1c-3.5-3.9-8.2-6.1-13.2-6.1h-0.1c-5,0-9.7,2.2-13.3,6.2c-3.5,4-5.5,9.2-5.4,14.8
		c0,5.6,2,10.8,5.5,14.8c3.5,3.9,8.2,6.1,13.2,6.1H46c10.4,0,18.7-9.5,18.7-21C64.6,34.3,62.7,29,59.1,25.1 M51.6,32.7
		c1.6,1.9,2.4,4.5,2.4,7.2c0,2.7-0.8,5.3-2.4,7.3c-1.5,1.9-3.6,3-5.7,3c-2.2,0-4.2-1-5.7-2.9c-1.6-1.9-2.4-4.5-2.4-7.2
		c0-5.6,3.6-10.2,8.1-10.3l0-0.3v0.3C48,29.7,50.1,30.8,51.6,32.7">
  </path>
  <path class="st1" d="M180.8,25.1c-3.5-3.9-8.2-6.1-13.2-6.1h-0.1c-5,0-9.7,2.2-13.3,6.2c-3.5,4-5.5,9.2-5.4,14.8
		c0,5.6,2,10.8,5.5,14.8c3.5,3.9,8.2,6.1,13.2,6.1h0.1c10.3,0,18.7-9.5,18.7-21C186.4,34.3,184.4,29,180.8,25.1 M173.3,32.7
		c1.6,1.9,2.4,4.5,2.4,7.2c0,2.7-0.8,5.3-2.4,7.3c-1.5,1.9-3.6,3-5.7,3c-2.2,0-4.2-1-5.7-2.9c-1.6-1.9-2.4-4.5-2.4-7.2
		c0-5.6,3.6-10.2,8.1-10.3l0-0.3v0.3C169.8,29.7,171.8,30.8,173.3,32.7">
  </path>
  <path class="st1" d="M80.8,35.1c-4.2-2.6-5.3-3.8-5.3-5.4c0-1.4,1.1-2.4,2.8-2.4c2.4,0,4.7,0.7,7.4,2.3l0.5,0.3l1.4-9.1l-0.3-0.1
		c-3.2-1.4-6-2-9.8-2c-7.4,0-12.4,4.8-12.4,11.9c0,6,4.1,9.5,8.5,12.4c4.4,2.9,5.6,4.2,5.6,6.2c0,1.7-1.3,2.7-3.5,2.7
		c-2.7,0-5.4-0.9-9.3-2.9L66,48.8l-1.4,7.6l0.2,0.2c2.7,2.5,7.1,3.9,12,3.9c8,0,12.9-4.7,12.9-12.2C89.7,41.7,85.2,37.9,80.8,35.1">
  </path>
  <path class="st1" d="M216.6,28.6c0-0.8,0.7-1.5,1.5-1.5c0.8,0,1.5,0.6,1.5,1.5c0,0.8-0.7,1.5-1.5,1.5
		C217.3,30.1,216.6,29.5,216.6,28.6 M218.1,29.9c0.7,0,1.2-0.5,1.2-1.2c0-0.7-0.5-1.2-1.2-1.2c-0.7,0-1.2,0.5-1.2,1.2
		C216.9,29.4,217.4,29.9,218.1,29.9 M217.8,29.5h-0.3v-1.7h0.6c0.4,0,0.6,0.1,0.6,0.5c0,0.3-0.2,0.4-0.4,0.5l0.5,0.7h-0.3l-0.4-0.7
		h-0.3V29.5z M218.1,28.5c0.2,0,0.4,0,0.4-0.3c0-0.2-0.2-0.2-0.4-0.2h-0.3v0.5H218.1z">
  </path>
  <path class="st1" d="M216.3,31.4h0.8c0.3,0,0.5,0.2,0.5,0.5c0,0.1,0,0.3-0.2,0.4c0.1,0,0.3,0.1,0.3,0.4c0,0.3-0.2,0.5-0.6,0.5h-0.8
		V31.4z M216.6,32.2h0.4c0.2,0,0.4-0.1,0.4-0.3c0-0.2-0.1-0.3-0.4-0.3h-0.5V32.2z M216.6,33.1h0.5c0.3,0,0.4-0.1,0.4-0.3
		c0-0.3-0.2-0.3-0.4-0.3h-0.5V33.1z">
  </path>
  <path class="st1" d="M218.3,33.3h-0.2v-1.8h0.9c0.3,0,0.6,0.1,0.6,0.5c0,0.3-0.1,0.4-0.3,0.4c0.1,0,0.2,0.1,0.2,0.3l0,0.3
		c0,0.1,0,0.1,0.1,0.2v0h-0.3c0-0.1,0-0.4,0-0.5c0-0.2,0-0.3-0.3-0.3h-0.6V33.3z M218.3,32.3h0.6c0.2,0,0.4,0,0.4-0.3
		c0-0.3-0.2-0.3-0.3-0.3h-0.6V32.3z">
  </path>
  <path class="st1" d="M220.2,32.7l-0.2,0.5h-0.3l0.7-1.9h0.3l0.7,1.9h-0.3l-0.2-0.5H220.2z M220.9,32.5l-0.3-0.8h0l-0.3,0.8H220.9z">
  </path>
  <polygon class="st1" points="222.9,31.4 223.1,31.4 223.1,33.3 222.8,33.3 221.9,31.8 221.9,31.8 221.9,33.3 221.6,33.3 
		221.6,31.4 221.9,31.4 222.9,32.9 222.9,32.9 	">
  </polygon>
  <path class="st1" d="M223.5,31.4h0.7c0.5,0,0.8,0.4,0.8,0.9c0,0.4-0.2,1-0.8,1h-0.7V31.4z M223.8,33.1h0.5c0.3,0,0.5-0.3,0.5-0.7
		c0-0.5-0.2-0.7-0.6-0.7h-0.5V33.1z">
  </path>
 </g>
</svg>